<svg xmlns="http://www.w3.org/2000/svg" viewBox="49 0 37 27" width="32" height="32">
  <path d="M85.2994 24.5906C85.2776 24.5289 85.2522 24.4685 85.2232 24.4098L74.398 2.6163C73.842 1.33555 72.6838 0.41352 71.3074 0.155635C69.931 -0.10225 68.5158 0.337669 67.5308 1.32967L64.871 6.37542L58.4877 19.7717C57.4338 21.7958 55.7718 23.136 53.7919 23.6051L63.5659 3.99641C63.5855 3.95651 63.6036 3.91603 63.6203 3.87497C63.7801 3.51714 64.1365 3.28676 64.5296 3.28728C64.5666 3.28791 64.6034 3.29063 64.6401 3.29544L66.2477 0.446388C65.2177 -0.0111788 64.0468 -0.0386049 62.9964 0.370238C61.9461 0.779081 61.1039 1.59012 60.658 2.62212L49.8215 24.3655C49.8048 24.3967 49.7893 24.4284 49.7747 24.4613C49.5339 24.9925 49.5703 25.6076 49.872 26.1068C50.1737 26.6061 50.7023 26.9259 51.2861 26.9624C51.581 26.9868 51.8795 26.9991 52.1744 26.9991C56.0539 26.9991 59.4877 24.839 61.3586 21.22C61.3665 21.2046 61.3744 21.1891 61.3817 21.1731L67.4723 8.38924L67.4741 8.38516L67.5282 8.27217L69.3111 4.54013L69.3085 4.53459L69.5768 3.97137C69.5881 3.94768 69.5987 3.9239 69.6087 3.90002C69.763 3.52909 70.1264 3.28727 70.5294 3.28727C70.9324 3.28727 71.2957 3.52909 71.4501 3.90002C71.4632 3.93234 71.4793 3.96438 71.4936 3.99583L81.2332 23.6043C79.2672 23.1336 77.6135 21.7943 76.561 19.7723L70.1511 6.3032L68.3813 10.0647L73.6665 21.1708C73.6741 21.1865 73.682 21.2025 73.6898 21.2183C75.5897 24.8912 78.9264 26.9973 82.8475 26.9973C83.157 26.9973 83.4703 26.9836 83.7787 26.9568C83.9739 26.9401 84.1645 26.8878 84.3408 26.8025C85.1982 26.4342 85.6186 25.4634 85.2991 24.5892" fill="black"/>
</svg>
